<?xml version="1.0" encoding="iso-8859-1"?>
<!-- Generator: Adobe Illustrator 16.0.0, SVG Export Plug-In . SVG Version: 6.00 Build 0)  -->
<!DOCTYPE svg PUBLIC "-//W3C//DTD SVG 1.1//EN" "http://www.w3.org/Graphics/SVG/1.1/DTD/svg11.dtd">
<svg version="1.1" id="Capa_1" xmlns="http://www.w3.org/2000/svg" xmlns:xlink="http://www.w3.org/1999/xlink" x="0px" y="0px"
	 width="459.729px" height="459.729px" viewBox="0 0 459.729 459.729" style="enable-background:new 0 0 459.729 459.729;"
	 xml:space="preserve">
<g>
	<g>
		<path d="M279.49,145.822C395.245,189.433,449.493,43.046,454.398,28.994c-2.653,5.809-22.674,29.899-168.368-7.474
			C108.289-24.068,121.219,76.166,121.219,76.166v90.585v89.979c-27.176-9.445-63.201,0.437-90.207,27.435
			c-34.674,34.677-41.271,84.309-14.719,110.85c26.542,26.541,76.169,19.957,110.845-14.72
			c18.028-18.025,28.381-40.069,30.523-60.841h0.285v-3.334c0.194-3.258,0.218-6.479,0-9.638v-168.69
			C182.522,127.783,221.25,123.882,279.49,145.822z"/>
		<path d="M454.398,28.994c0.333-0.723,0.417-1.188,0.417-1.188S454.651,28.285,454.398,28.994z"/>
		<path d="M320.322,171.297c-76.862,0-139.4,62.53-139.4,139.4c0,76.866,62.538,139.398,139.4,139.398
			c76.87,0,139.406-62.532,139.406-139.398C459.729,233.828,397.192,171.297,320.322,171.297z M320.322,418.694
			c-59.559,0-108-48.441-108-107.996c0-59.551,48.442-107.998,108-107.998c59.554,0,108.004,48.447,108.004,107.998
			C428.326,370.252,379.876,418.694,320.322,418.694z"/>
		<path d="M362.597,251.617h-84.553c-9.277,0-16.808,7.525-16.808,16.803v84.561c0,9.277,7.53,16.804,16.808,16.804h84.561
			c9.273,0,16.803-7.526,16.803-16.804v-84.561C379.399,259.142,371.878,251.617,362.597,251.617z"/>
	</g>
</g>
<g>
</g>
<g>
</g>
<g>
</g>
<g>
</g>
<g>
</g>
<g>
</g>
<g>
</g>
<g>
</g>
<g>
</g>
<g>
</g>
<g>
</g>
<g>
</g>
<g>
</g>
<g>
</g>
<g>
</g>
</svg>
