<?xml version="1.0" encoding="utf-8"?>
<!-- Generator: Adobe Illustrator 19.0.0, SVG Export Plug-In . SVG Version: 6.00 Build 0)  -->
<svg version="1.1" id="Capa_1" xmlns="http://www.w3.org/2000/svg" xmlns:xlink="http://www.w3.org/1999/xlink" x="0px" y="0px"
	 viewBox="-220 315.9 154 210" style="enable-background:new -220 315.9 154 210;" xml:space="preserve">
<style type="text/css">
	.st0{display:none;}
	.st1{display:inline;}
</style>
<g>
	<path d="M-128.3,416.6l49.5,77.2c8.5,13.3,1.5,24.1-15.6,24.1h-98.8c-17.2,0-24.2-10.8-15.6-24.1l49.5-77.2
		C-150.7,403.3-136.9,403.3-128.3,416.6z"/>
	<path d="M-159.3,424.1l-49.5-77.2c-8.5-13.3-1.5-24.1,15.6-24.1h98.8c17.2,0,24.2,10.8,15.6,24.1l-49.5,77.2
		C-136.9,437.4-150.7,437.4-159.3,424.1z"/>
	<path d="M-202.2,398.8l99.4-69.8c17.1-12,31-2.2,31.1,21.9l0.3,138.9c0,24.1-13.8,34-31,22l-99.7-69.5
		C-219.3,430.3-219.3,410.9-202.2,398.8z"/>
	<path id="play" d="M-84.3,441.6l-99.6,69.7c-17.1,12-31,2.2-31-22V350.4c0-24.1,13.9-34,31-22l99.6,69.7
		C-67.2,410.1-67.2,429.6-84.3,441.6z"/>
</g>
<g class="st0">
	<path class="st1" d="M-71,477.9c0,21.2-10.7,38.5-24,38.5c-13.2,0-24-17.2-24-38.5V361.3c0-21.2,10.7-38.5,24-38.5
		c13.2,0,24,17.2,24,38.5V477.9z"/>
	<path class="st1" d="M-166.5,477.9c0,21.2-10.7,38.5-24,38.5c-13.2,0-24-17.2-24-38.5V361.3c0-21.2,10.7-38.5,24-38.5
		c13.2,0,24,17.2,24,38.5C-166.5,361.3-166.5,477.9-166.5,477.9z"/>
</g>
</svg>
